#!OML:ASF E:\I on waltz\AllaLogoMonkeySwing\Project 1\Capture day 1\Session 1\Subject1.ASF
:FULLY-SPECIFIED
:DEGREES
721
root 1.5014 17.8028 5.51071 -0.264624 -0.0143929 -1.87014
lowerback 4.26027 0.716812 -0.958024
upperback -2.2723 0.954861 1.2816
thorax -4.77778 0.526458 1.78421
lowerneck -16.4291 1.54639 0.222098
upperneck 15.1517 2.4591 -2.16594
head 7.39085 0.982463 -0.474141
rclavicle 7.63457e-015 6.06293e-015
rhumerus -34.3748 -29.547 -75.3487
rradius 18.9345
rwrist 13.7159
rhand -7.66449 -36.5466
rfingers 7.12502
rthumb 18.2316 -65.7122
lclavicle 7.63457e-015 6.06293e-015
lhumerus -40.0819 23.5935 80.283
lradius 35.1435
lwrist -5.57321
lhand -6.24722 -14.3198
lfingers 7.12502
lthumb 19.5947 14.7127
rfemur 1.47474 1.14807 22.27
rtibia 16.6936
rfoot -16.0424 -11.8382
rtoes 19.566
lfemur 3.85462 -0.903159 -17.4977
ltibia 12.0246
lfoot -16.071 3.24461
ltoes -27.3846
722
root 1.49734 17.7986 5.5319 -0.285302 0.0868657 -1.85071
lowerback 4.1505 0.719284 -0.99008
upperback -2.2456 0.955304 1.25629
thorax -4.68762 0.526492 1.77715
lowerneck -16.3993 1.53978 0.266213
upperneck 15.1727 2.44239 -2.18
head 7.39309 0.975767 -0.487952
rclavicle -1.1382e-014 -3.97569e-015
rhumerus -34.706 -30.147 -74.9503
rradius 18.5441
rwrist 14.6868
rhand -7.71416 -36.7906
rfingers 7.12502
rthumb 18.1839 -65.9606
lclavicle -1.1382e-014 -3.97569e-015
lhumerus -40.2433 23.8735 80.115
lradius 34.8241
lwrist -5.76156
lhand -6.17761 -14.0395
lfingers 7.12502
lthumb 19.6616 14.9862
rfemur 1.56336 1.1179 22.2744
rtibia 16.7262
rfoot -16.2481 -11.9261
rtoes 20.0924
lfemur 3.91804 -0.942086 -17.508
ltibia 12.0676
lfoot -16.1431 3.24057
ltoes -27.5166
723
root 1.49535 17.7962 5.55324 -0.267432 0.184425 -1.84408
lowerback 4.01188 0.718216 -0.963383
upperback -2.2347 0.95386 1.20725
thorax -4.59598 0.523451 1.71293
lowerneck -16.389 1.53099 0.289999
upperneck 15.2533 2.41436 -2.11394
head 7.41669 0.969411 -0.47322
rclavicle 8.35051e-015 1.54058e-015
rhumerus -35.002 -30.7733 -74.5354
rradius 18.0684
rwrist 15.558
rhand -7.8202 -36.7758
rfingers 7.12502
rthumb 18.0818 -65.9553
lclavicle 8.35051e-015 1.54058e-015
lhumerus -40.3924 24.0995 79.8967
lradius 34.4157
lwrist -6.01387
lhand -6.10213 -13.9516
lfingers 7.12502
lthumb 19.7342 15.0666
rfemur 1.62935 1.05445 22.2842
rtibia 16.7213
rfoot -16.087 -12.0311
rtoes 18.8041
lfemur 3.96496 -0.955055 -17.5136
ltibia 12.0637
lfoot -16.1899 3.24068
ltoes -27.7112
724
root 1.49266 17.7953 5.57386 -0.259418 0.273997 -1.81535
lowerback 3.88708 0.717442 -1.01476
upperback -2.2213 0.949471 1.18817
thorax -4.51151 0.521909 1.72373
lowerneck -16.3872 1.54524 0.289498
upperneck 15.3799 2.43413 -2.09716
head 7.45798 0.979264 -0.465201
rclavicle 7.0522e-015 -8.3738e-015
rhumerus -35.2388 -31.3061 -74.1092
rradius 17.6098
rwrist 16.4178
rhand -7.78248 -36.8279
rfingers 7.12502
rthumb 18.1181 -66.0041
lclavicle 7.0522e-015 -8.3738e-015
lhumerus -40.5479 24.4549 79.6635
lradius 33.9246
lwrist -6.5196
lhand -6.02112 -14.0833
lfingers 7.12502
lthumb 19.8121 14.9269
rfemur 1.71919 1.07806 22.2786
rtibia 16.6866
rfoot -16.1562 -12.1278
rtoes 18.8929
lfemur 4.01361 -0.980252 -17.545
ltibia 12.0741
lfoot -16.2193 3.25819
ltoes -27.8577
725
root 1.4892 17.7947 5.59259 -0.272146 0.329086 -1.85763
lowerback 3.81406 0.727673 -1.02582
upperback -2.20156 0.964028 1.21864
thorax -4.45085 0.529453 1.76119
lowerneck -16.3418 1.57167 0.240552
upperneck 15.4338 2.47698 -2.062
head 7.46729 1.00007 -0.441074
rclavicle -3.6449e-015 1.81391e-015
rhumerus -35.4782 -31.8587 -73.631
rradius 17.2588
rwrist 17.2991
rhand -7.67391 -36.8371
rfingers 7.12502
rthumb 18.2226 -66.0036
lclavicle -3.6449e-015 1.81391e-015
lhumerus -40.6944 24.9017 79.4287
lradius 33.394
lwrist -7.12715
lhand -5.91829 -14.2261
lfingers 7.12502
lthumb 19.9109 14.7739
rfemur 1.81926 1.14833 22.3597
rtibia 16.6618
rfoot -16.2541 -12.2222
rtoes 18.857
lfemur 4.08215 -1.01518 -17.4881
ltibia 12.0732
lfoot -16.2423 3.26725
ltoes -27.8379
726
root 1.48771 17.7933 5.60946 -0.226717 0.332717 -1.90664
lowerback 3.69438 0.744715 -0.992941
upperback -2.20693 0.990248 1.24314
thorax -4.38939 0.541549 1.76734
lowerneck -16.2223 1.59958 0.253441
upperneck 15.4199 2.50598 -2.03354
head 7.44208 1.01852 -0.431466
rclavicle 1.11164e-014 8.54774e-015
rhumerus -35.7489 -32.3716 -73.1417
rradius 17.0075
rwrist 17.9858
rhand -7.44846 -36.7622
rfingers 7.12502
rthumb 18.4395 -65.9082
lclavicle 1.11164e-014 8.54774e-015
lhumerus -40.8632 25.3617 79.1359
lradius 32.8694
lwrist -7.74308
lhand -5.65978 -14.2874
lfingers 7.12502
lthumb 20.1594 14.6866
rfemur 1.85345 1.18599 22.4341
rtibia 16.6275
rfoot -16.2915 -12.2711
rtoes 18.991
lfemur 4.08271 -0.992613 -17.429
ltibia 12.0828
lfoot -16.2824 3.307
ltoes -27.9383
727
root 1.48917 17.7905 5.62569 -0.158117 0.321935 -1.91433
lowerback 3.52881 0.752883 -0.977379
upperback -2.23584 1.00313 1.24901
thorax -4.32578 0.547398 1.76542
lowerneck -16.0116 1.65659 0.484186
upperneck 15.403 2.57485 -2.28716
head 7.4076 1.04277 -0.546125
rclavicle 4.84848e-015 7.87684e-015
rhumerus -36.0735 -32.9032 -72.5842
rradius 16.7762
rwrist 18.6113
rhand -7.2367 -36.5551
rfingers 7.12502
rthumb 18.6432 -65.6817
lclavicle 4.84848e-015 7.87684e-015
lhumerus -41.1063 25.7239 78.8116
lradius 32.4325
lwrist -8.33915
lhand -5.38444 -14.2607
lfingers 7.12502
lthumb 20.424 14.6852
rfemur 1.85836 1.15382 22.4315
rtibia 16.5924
rfoot -16.3049 -12.2477
rtoes 18.9988
lfemur 4.05907 -0.943926 -17.4359
ltibia 12.1052
lfoot -16.333 3.38522
ltoes -28.1769
728
root 1.49261 17.7886 5.64227 -0.136533 0.296873 -1.96497
lowerback 3.38999 0.767555 -0.89059
upperback -2.24024 1.02853 1.26581
thorax -4.25125 0.557318 1.73378
lowerneck -15.762 1.73902 0.58917
upperneck 15.3818 2.69187 -2.44792
head 7.36304 1.09207 -0.604821
rclavicle -1.20933e-014 -7.05686e-015
rhumerus -36.3235 -33.4116 -72.0816
rradius 16.5711
rwrist 19.3161
rhand -7.20837 -36.3264
rfingers 7.12502
rthumb 18.6704 -65.4504
lclavicle -1.20933e-014 -7.05686e-015
lhumerus -41.3333 26.0511 78.4926
lradius 32.0345
lwrist -8.88476
lhand -5.1563 -14.2262
lfingers 7.12502
lthumb 20.6432 14.696
rfemur 1.89517 1.09698 22.4595
rtibia 16.5968
rfoot -16.369 -12.1679
rtoes 18.8502
lfemur 4.11308 -0.956935 -17.4105
ltibia 12.0957
lfoot -16.3592 3.48015
ltoes -28.19
729
root 1.49459 17.7875 5.65796 -0.131548 0.243455 -1.98617
lowerback 3.30822 0.781347 -0.858082
upperback -2.2378 1.04969 1.28741
thorax -4.20293 0.566938 1.73733
lowerneck -15.5436 1.84518 0.470122
upperneck 15.3616 2.83944 -2.31286
head 7.31708 1.17056 -0.526863
rclavicle 2.57535e-014 2.0773e-014
rhumerus -36.3399 -33.491 -71.9559
rradius 16.4867
rwrist 19.7498
rhand -7.24029 -36.5415
rfingers 7.12502
rthumb 18.6397 -65.6684
lclavicle 2.57535e-014 2.0773e-014
lhumerus -41.5545 26.3715 78.1729
lradius 31.6962
lwrist -9.34158
lhand -4.8888 -14.1757
lfingers 7.12502
lthumb 20.9003 14.7184
rfemur 1.93338 1.14009 22.4788
rtibia 16.6269
rfoot -16.4383 -12.1623
rtoes 18.7387
lfemur 4.19506 -0.986413 -17.4056
ltibia 12.0596
lfoot -16.3681 3.56291
ltoes -28.0263
730
root 1.4958 17.787 5.67184 -0.0996895 0.189162 -1.92481
lowerback 3.24977 0.78194 -0.939743
upperback -2.26897 1.04692 1.29325
thorax -4.20379 0.568265 1.78997
lowerneck -15.3761 1.93823 0.522793
upperneck 15.3799 2.9689 -2.38901
head 7.29802 1.22982 -0.547656
rclavicle 1.07499e-014 1.45113e-014
rhumerus -36.2923 -33.3569 -71.973
rradius 16.4569
rwrist 19.852
rhand -7.2977 -36.7496
rfingers 7.12502
rthumb 18.5845 -65.8819
lclavicle 1.07499e-014 1.45113e-014
lhumerus -41.8117 26.5903 77.8891
lradius 31.4692
lwrist -9.65191
lhand -4.68698 -14.0065
lfingers 7.12502
lthumb 21.0941 14.8661
rfemur 1.92267 1.20156 22.412
rtibia 16.6715
rfoot -16.4818 -12.1807
rtoes 18.5296
lfemur 4.24515 -0.964776 -17.4802
ltibia 12.003
lfoot -16.3624 3.5864
ltoes -27.8972
731
root 1.49796 17.7857 5.68434 -0.0622995 0.1461 -1.87273
lowerback 3.1921 0.794684 -0.981387
upperback -2.29544 1.06226 1.29402
thorax -4.20002 0.577298 1.81367
lowerneck -15.2638 1.98669 0.687632
upperneck 15.397 3.0419 -2.62904
head 7.29196 1.2529 -0.645927
rclavicle 6.78042e-015 -6.06293e-015
rhumerus -36.2341 -33.2502 -71.9739
rradius 16.4595
rwrist 19.6799
rhand -7.47097 -36.5687
rfingers 7.12502
rthumb 18.4178 -65.7168
lclavicle 6.78042e-015 -6.06293e-015
lhumerus -42.0256 26.741 77.6669
lradius 31.2911
lwrist -9.88356
lhand -4.63586 -13.7536
lfingers 7.12502
lthumb 21.1433 15.1136
rfemur 1.89398 1.23671 22.3479
rtibia 16.7317
rfoot -16.5345 -12.1823
rtoes 18.3398
lfemur 4.29508 -0.923932 -17.5469
ltibia 11.9202
lfoot -16.3041 3.60669
ltoes -28.0939
732
root 1.50056 17.7822 5.69595 -0.0435683 0.0800885 -1.84656
lowerback 3.15669 0.826732 -0.974309
upperback -2.29686 1.10572 1.29781
thorax -4.18309 0.598675 1.81105
lowerneck -15.2171 2.04273 0.749178
upperneck 15.4388 3.12473 -2.73161
head 7.3018 1.28663 -0.680821
rclavicle -1.09363e-014 -1.89342e-014
rhumerus -36.058 -32.9368 -72.1692
rradius 16.5997
rwrist 19.1666
rhand -7.60811 -36.6681
rfingers 7.12502
rthumb 18.2859 -65.8286
lclavicle -1.09363e-014 -1.89342e-014
lhumerus -42.1648 26.7992 77.5004
lradius 31.0915
lwrist -10.0871
lhand -4.71656 -13.6518
lfingers 7.12502
lthumb 21.0657 15.224
rfemur 1.90781 1.29993 22.3156
rtibia 16.7541
rfoot -16.5847 -12.1812
rtoes 18.3843
lfemur 4.34175 -0.921309 -17.5955
ltibia 11.8887
lfoot -16.2121 3.72976
ltoes -28.5671
733
root 1.50439 17.7792 5.70721 -0.030686 -0.0136163 -1.85345
lowerback 3.09736 0.853786 -0.930632
upperback -2.29202 1.14474 1.31184
thorax -4.14535 0.616765 1.79916
lowerneck -15.1728 2.12325 0.782623
upperneck 15.5412 3.23995 -2.78187
head 7.33123 1.3384 -0.690406
rclavicle 1.24831e-014 3.47873e-016
rhumerus -35.7995 -32.5019 -72.4624
rradius 16.7602
rwrist 18.5968
rhand -7.74841 -36.8931
rfingers 7.12502
rthumb 18.1509 -66.0662
lclavicle 1.24831e-014 3.47873e-016
lhumerus -42.2979 26.8273 77.3297
lradius 30.9023
lwrist -10.2795
lhand -4.79063 -13.7192
lfingers 7.12502
lthumb 20.9946 15.1645
rfemur 1.94275 1.36429 22.3104
rtibia 16.7361
rfoot -16.6085 -12.152
rtoes 18.3386
lfemur 4.37096 -0.933331 -17.619
ltibia 11.9235
lfoot -16.1867 3.87543
ltoes -28.7704
734
root 1.50866 17.7792 5.71635 -0.010253 -0.116111 -1.9551
lowerback 3.03656 0.861475 -0.79584
upperback -2.30151 1.16371 1.36181
thorax -4.11972 0.623016 1.7746
lowerneck -15.1018 2.21092 0.780362
upperneck 15.6842 3.37502 -2.8334
head 7.36924 1.39718 -0.692557
rclavicle -7.87995e-015 -5.56597e-015
rhumerus -35.4509 -31.8547 -72.9078
rradius 16.9568
rwrist 17.9487
rhand -7.89439 -37.0718
rfingers 7.12502
rthumb 18.0105 -66.2579
lclavicle -7.87995e-015 -5.56597e-015
lhumerus -42.4801 26.9949 77.0656
lradius 30.778
lwrist -10.4845
lhand -4.71575 -13.4846
lfingers 7.12502
lthumb 21.0665 15.391
rfemur 1.94591 1.40841 22.407
rtibia 16.7291
rfoot -16.593 -12.1302
rtoes 18.1281
lfemur 4.39526 -0.930266 -17.5294
ltibia 11.9515
lfoot -16.2105 3.93722
ltoes -28.4974
735
root 1.51148 17.7792 5.724 -0.00347897 -0.231234 -2.01413
lowerback 3.00549 0.862111 -0.731656
upperback -2.30921 1.16961 1.41083
thorax -4.11007 0.624874 1.78919
lowerneck -15.0119 2.28862 0.812809
upperneck 15.7977 3.50722 -2.98858
head 7.39709 1.44737 -0.734814
rclavicle 2.41648e-015 2.78299e-015
rhumerus -35.1101 -31.2012 -73.361
rradius 17.2203
rwrist 17.261
rhand -7.90549 -37.2321
rfingers 7.12502
rthumb 17.9998 -66.4192
lclavicle 2.41648e-015 2.78299e-015
lhumerus -42.6183 27.2323 76.7708
lradius 30.6393
lwrist -10.6669
lhand -4.6325 -12.9248
lfingers 7.12502
lthumb 21.1465 15.942
rfemur 1.95852 1.45137 22.4677
rtibia 16.7174
rfoot -16.5576 -12.1197
rtoes 17.9109
lfemur 4.42416 -0.923507 -17.4779
ltibia 11.9821
lfoot -16.2261 3.99375
ltoes -28.1166
